<svg width="18" height="16" viewBox="0 0 18 16" fill="none" xmlns="http://www.w3.org/2000/svg">
<path d="M8.99977 0C8.92404 0 8.8486 0.0240211 8.78418 0.0727706L0.775342 6.32356C0.625611 6.44195 0.597782 6.6607 0.716173 6.81391C0.834565 6.96364 1.05331 6.99147 1.20652 6.87308L1.68735 6.49766V15.6518C1.68735 15.8433 1.84405 16 2.03556 16H6.91051V9.73221H11.089V16H15.964C16.1555 16 16.3122 15.8433 16.3122 15.6518V6.49766L16.793 6.87308C16.8592 6.92183 16.932 6.94653 17.0086 6.94653C17.1131 6.94653 17.2137 6.90096 17.2834 6.81391C17.4018 6.6607 17.3739 6.44195 17.2242 6.32356L9.21537 0.0727706C9.15095 0.0240211 9.07551 0 8.99977 0ZM12.4819 1.37516V1.74105L14.5711 3.37057V1.37516H12.4819Z" fill="black"/>
</svg>
