<svg width="17" height="16" viewBox="0 0 17 16" fill="none" xmlns="http://www.w3.org/2000/svg">
<path d="M8.50002 0C8.42428 0 8.34885 0.0240211 8.28443 0.0727706L0.275586 6.32356C0.125855 6.44195 0.0980258 6.6607 0.216417 6.81391C0.334809 6.96364 0.553556 6.99147 0.706768 6.87308L1.1876 6.49766V15.6518C1.1876 15.8433 1.34429 16 1.53581 16H6.41076V9.73221H10.5893V16H15.4642C15.6557 16 15.8124 15.8433 15.8124 15.6518V6.49766L16.2933 6.87308C16.3594 6.92183 16.4323 6.94653 16.5089 6.94653C16.6133 6.94653 16.714 6.90096 16.7836 6.81391C16.902 6.6607 16.8742 6.44195 16.7245 6.32356L8.71561 0.0727706C8.65119 0.0240211 8.57575 0 8.50002 0ZM11.9821 1.37516V1.74105L14.0714 3.37057V1.37516H11.9821Z" fill="black"/>
</svg>
