<svg width="18" height="16" viewBox="0 0 18 16" fill="none" xmlns="http://www.w3.org/2000/svg">
<path d="M9.00002 0C8.92428 0 8.84885 0.0240211 8.78443 0.0727706L0.775586 6.32356C0.625855 6.44195 0.598026 6.6607 0.716417 6.81391C0.834809 6.96364 1.05356 6.99147 1.20677 6.87308L1.6876 6.49766V15.6518C1.6876 15.8433 1.84429 16 2.03581 16H6.91076V9.73221H11.0893V16H15.9642C16.1557 16 16.3124 15.8433 16.3124 15.6518V6.49766L16.7933 6.87308C16.8594 6.92183 16.9323 6.94653 17.0089 6.94653C17.1133 6.94653 17.214 6.90096 17.2836 6.81391C17.402 6.6607 17.3742 6.44195 17.2245 6.32356L9.21561 0.0727706C9.15119 0.0240211 9.07575 0 9.00002 0ZM12.4821 1.37516V1.74105L14.5714 3.37057V1.37516H12.4821Z" fill="black"/>
</svg>
