<svg width="17" height="16" viewBox="0 0 17 16" fill="none" xmlns="http://www.w3.org/2000/svg">
<path d="M8.49977 0C8.42404 0 8.3486 0.0240211 8.28418 0.0727706L0.275342 6.32356C0.125611 6.44195 0.0977816 6.6607 0.216173 6.81391C0.334565 6.96364 0.553312 6.99147 0.706524 6.87308L1.18735 6.49766V15.6518C1.18735 15.8433 1.34405 16 1.53556 16H6.41051V9.73221H10.589V16H15.464C15.6555 16 15.8122 15.8433 15.8122 15.6518V6.49766L16.293 6.87308C16.3592 6.92183 16.432 6.94653 16.5086 6.94653C16.6131 6.94653 16.7137 6.90096 16.7834 6.81391C16.9018 6.6607 16.8739 6.44195 16.7242 6.32356L8.71537 0.0727706C8.65095 0.0240211 8.57551 0 8.49977 0ZM11.9819 1.37516V1.74105L14.0711 3.37057V1.37516H11.9819Z" fill="black"/>
</svg>
